PathFileType	3	(X/Y/Z)	C:\Users\koon_\Desktop\																																																																															
DataRate	CameraRate	NumFrames	NumMarkers	Units	OrigDataRate	OrigDataStartFrame	OrigNumFrames																																																																											
100	100	8	27	mm	100	1	2174																																																																											
Frame#	Time	get:LFHD			get:RFHD			get:LBHD			get:RBHD			get:C7			get:T10			get:CLAV			get:STRN			get:RBAK			get:LSHO			get:LUPA			get:LELB			get:LFRA			get:LWRA			get:LWRB			get:LFIN			get:RSHO			get:RUPA			get:RELB			get:RFRA			get:RWRA			get:RWRB			get:RFIN			get:LASI			get:RASI			get:LPSI			get:RPSI		
		X1	Y1	Z1	X2	Y2	Z2	X3	Y3	Z3	X4	Y4	Z4	X5	Y5	Z5	X6	Y6	Z6	X7	Y7	Z7	X8	Y8	Z8	X9	Y9	Z9	X10	Y10	Z10	X11	Y11	Z11	X12	Y12	Z12	X13	Y13	Z13	X14	Y14	Z14	X15	Y15	Z15	X16	Y16	Z16	X17	Y17	Z17	X18	Y18	Z18	X19	Y19	Z19	X20	Y20	Z20	X21	Y21	Z21	X22	Y22	Z22	X23	Y23	Z23	X24	Y24	Z24	X25	Y25	Z25	X26	Y26	Z26	X27	Y27	Z27
1	0	59.655769	1529.3901	-11.215072	-87.744598	1527.9917	-37.176476	76.563316	1525.7235	-148.95264	-71.945747	1517.6149	-166.20993	-5.2	1322.845	-232.715	7.2210169	1106.3258	-261.11862	12.322893	1242.0037	-36.635925	14.465129	1087.5529	4.212523	-92.954582	1247.454	-246.63115	170.07019	1323.6619	-164.69695	228.13916	1111.3345	-111.12278	243.35497	995.19336	-170.69379	249.12611	943.57568	-89.658188	234.83667	775.46289	-44.873096	288.92789	777.92749	-96.590889	298.8215	710.01538	-55.707664	-138.81567	1329.5356	-125.77929	-212.12509	1204.8999	-106.09382	-241.854	988.99683	-146.77249	-203.51808	861.591	-49.477829	-192.41472	766.34711	-29.645636	-255.25433	773.35883	-66.868996	-239.25571	704.68921	-8.9549608	150.78738	889.95728	-61.158386	-146.78027	899.24194	-53.943336	50.992561	920.80273	-244.36263	-37.113186	916.76331	-246.14749
2	0.01	59.673241	1529.4751	-11.377806	-87.769585	1528.0387	-37.329018	76.502068	1525.6963	-149.17506	-71.992439	1517.5984	-166.35204	-5.265194	1322.847	-232.7287	7.2071791	1106.3258	-261.10074	12.325746	1242.0132	-36.588245	14.517058	1087.6016	4.2360206	-92.985519	1247.4542	-246.62933	170.05162	1323.6821	-164.7189	228.12524	1111.3549	-111.14713	243.35149	995.20587	-170.69298	249.12544	943.60535	-89.617622	234.79605	775.49255	-44.807808	288.90149	777.97632	-96.447815	298.78485	710.06854	-55.603992	-138.80965	1329.5878	-125.88309	-212.09091	1204.923	-105.99243	-241.86652	989.02203	-146.64999	-203.52904	861.60754	-49.698639	-192.42451	766.37482	-29.607073	-255.33279	773.40912	-66.826355	-239.24464	704.72601	-8.8654652	150.76427	889.96991	-61.177006	-146.79427	899.25989	-53.883137	50.9636	920.82959	-244.3967	-37.165607	916.75653	-246.12645
3	0.02	59.705795	1529.563	-11.53567	-85.57132	1527.5004	-33.913849	76.495079	1525.6859	-149.3549	-72.026459	1517.5413	-166.42992	-5.184741	1322.802	-232.6236	7.2171483	1106.28	-261.07297	11.712671	1242.0183	-36.602051	13.664527	1087.5576	4.4173851	-93.026054	1247.4497	-246.61784	170.06804	1323.6882	-164.783	228.12698	1111.3799	-111.1864	243.3802	995.20648	-170.65427	249.07703	943.64893	-89.587433	234.80563	775.51886	-44.767887	288.90137	777.99133	-96.346916	298.71973	710.07715	-55.522945	-138.8074	1329.6147	-125.8821	-209.14836	1204.4426	-102.27048	-241.88875	989.0473	-146.56198	-203.53955	861.63049	-49.75219	-192.42134	766.38373	-29.508553	-255.31152	773.43665	-66.702942	-239.24464	704.72601	-8.8654633	150.70247	889.97241	-61.239876	-146.81873	899.26019	-53.882118	50.908932	920.80695	-244.42241	-37.211826	916.76971	-246.16367
4	0.03	59.72908	1529.6597	-11.731802	-85.539711	1527.5522	-33.97234	76.440575	1525.7034	-149.50732	-72.079338	1517.4971	-166.50801	-5.248611	1322.818	-232.6797	7.1908565	1106.2937	-261.11313	11.717775	1242.0425	-36.56929	13.710509	1087.6293	4.4085603	-93.056961	1247.45	-246.61584	170.06194	1323.6746	-164.87273	228.12622	1111.4182	-111.18793	243.38231	995.229	-170.59644	249.07462	943.65277	-89.550415	234.75768	775.55414	-44.693134	288.8862	778.03223	-96.277573	298.71518	710.11072	-55.427387	-138.81914	1329.6071	-125.75564	-209.15077	1204.4814	-102.22576	-241.89066	989.1012	-146.46277	-203.52168	861.71075	-48.647003	-192.43188	766.3866	-29.511921	-255.33513	773.49805	-66.616104	-239.25113	704.76489	-8.7581177	150.70255	889.97247	-61.239754	-146.84625	899.26898	-53.928692	50.877853	920.8186	-244.4386	-37.213051	916.77954	-246.17506
5	0.04	59.751381	1529.7092	-11.909454	-85.587311	1527.5756	-34.175011	76.416885	1525.7063	-149.74104	-72.110504	1517.4844	-166.69423	-5.232879	1322.812	-232.6827	7.1517944	1106.2833	-261.1514	11.797677	1242.0999	-36.589699	13.779184	1087.7019	4.478817	-93.133194	1247.4857	-246.63405	170.06589	1323.6807	-164.95525	228.15933	1111.4507	-111.26124	243.3687	995.23242	-170.60312	249.08113	943.70001	-89.521637	234.75528	775.58734	-44.623272	288.86523	778.08197	-96.241867	298.65216	710.10864	-55.343273	-139.01993	1329.3628	-124.33414	-209.17622	1204.5282	-102.21529	-241.93547	989.14807	-146.40518	-203.56082	861.71393	-49.385719	-192.44997	766.40887	-29.368155	-255.35674	773.52014	-66.546791	-238.99007	704.72717	-7.8364573	150.67366	889.98181	-61.258003	-146.86368	899.27142	-53.92178	50.835869	920.81122	-244.43129	-37.297993	916.78174	-246.17999
6	0.05	59.803745	1529.7579	-12.063054	-85.551331	1527.618	-34.266853	76.381294	1525.6809	-149.87129	-72.159233	1517.4518	-166.75322	-5.243879	1322.792	-232.7077	7.1182871	1106.2545	-261.13065	11.821449	1242.1674	-36.582092	13.799887	1087.7521	4.5213075	-93.178307	1247.5018	-246.63795	170.04829	1323.6953	-164.98949	228.14815	1111.4492	-111.27157	243.35535	995.21393	-170.59879	249.08551	943.73828	-89.524879	234.72221	775.63275	-44.560295	288.84232	778.06818	-96.152	298.63083	710.14594	-55.270084	-138.78194	1329.7164	-125.89188	-209.20656	1204.5432	-102.21439	-241.93079	989.19781	-146.32669	-203.56165	861.79187	-48.518116	-192.42712	766.43958	-29.28886	-255.3589	773.59418	-66.445419	-238.9653	704.82422	-7.7606125	150.63882	889.97522	-61.274361	-146.88051	899.28571	-53.957893	50.80579	920.82672	-244.45815	-37.326851	916.78516	-246.17963
7	0.06	59.85651	1529.8214	-12.246139	-85.491348	1527.6333	-34.407616	76.383392	1525.6824	-150.04475	-72.195152	1517.4396	-166.92207	-5.264579	1322.797	-232.7199	7.1018701	1106.2565	-261.15125	11.836691	1242.1934	-36.695225	13.833203	1087.8372	4.5836196	-93.225304	1247.5054	-246.63258	170.06587	1323.7051	-165.05942	228.15622	1111.439	-111.35123	243.34557	995.22015	-170.60773	249.07759	943.73621	-89.525162	234.72591	775.66449	-44.457241	288.77563	778.0885	-96.080795	298.61014	710.13489	-55.215252	-138.81587	1329.6589	-125.40744	-209.18184	1204.5892	-102.09251	-241.92462	989.21942	-146.20508	-203.50488	861.80298	-48.474209	-192.43111	766.46716	-29.248787	-255.32019	773.63074	-66.40625	-238.96461	704.86621	-7.6942921	150.61151	889.9433	-61.325466	-146.87712	899.30957	-53.951885	50.752083	920.8266	-244.48317	-37.344364	916.79822	-246.21741
8	0.07	59.896244	1529.8856	-12.409985	-85.409164	1527.6481	-34.442314	76.330956	1525.6829	-150.19949	-72.236031	1517.4016	-166.95665	-5.258373	1322.812	-232.6735	7.0705938	1106.2693	-261.14807	11.882719	1242.2521	-36.521698	13.866254	1087.9041	4.6796603	-93.256714	1247.5057	-246.60263	170.06738	1323.689	-165.14438	228.18518	1111.4746	-111.38542	243.32472	995.21918	-170.62527	249.06435	943.72937	-89.543877	234.71175	775.67297	-44.424454	288.7402	778.08685	-96.059135	298.58563	710.16052	-55.180546	-138.81253	1329.6951	-125.42109	-209.17903	1204.6436	-102.04896	-241.92459	989.26093	-146.12349	-203.48584	861.81512	-48.362659	-192.39078	766.5119	-29.165663	-255.30212	773.67468	-66.262863	-238.94292	704.88171	-7.6633549	150.61575	889.92871	-61.332607	-146.89169	899.28412	-53.889767	50.751289	920.83331	-244.48817	-37.373531	916.79254	-246.20177
